PathFileType	4	(X/Y/Z)	0_coords_data.trc
DataRate	CameraRate	NumFrames	NumMarkers	Units	OrigDataRate	OrigDataStartFrame	OrigNumFrames
30.0	30.0	8	21	m	30.0	11	72
Frame#	Time	THUMB_TIP	THUMB_IP	THUMB_MCP	THUMB_CMC	INDEX_TIP	INDEX_DIP	INDEX_PIP	INDEX_MCP	MIDDLE_TIP	MIDDLE_DIP	MIDDLE_PIP	MIDDLE_MCP	RING_TIP	RING_DIP	RING_PIP	RING_MCP	PINKY_TIP	PINKY_DIP	PINKY_PIP	PINKY_MCP	WRIST
X1	Y1	Z1	X2	Y2	Z2	X3	Y3	Z3	X4	Y4	Z4	X5	Y5	Z5	X6	Y6	Z6	X7	Y7	Z7	X8	Y8	Z8	X9	Y9	Z9	X10	Y10	Z10	X11	Y11	Z11	X12	Y12	Z12	X13	Y13	Z13	X14	Y14	Z14	X15	Y15	Z15	X16	Y16	Z16	X17	Y17	Z17	X18	Y18	Z18	X19	Y19	Z19	X20	Y20	Z20	X21	Y21	Z21
9	0.33333333333333187	0.4883493394601568	-0.021580124652368582	-0.16926919670243756	0.4936327937022499	-0.02192856564058565	-0.14690932863150663	0.4785307536968698	-0.028004472054652618	-0.12037950109864459	0.4778361573819495	-0.026419669176132254	-0.07580489021088099	0.4971384447800987	-0.014461946071325116	-0.09916867397150719	0.5148065215369642	-0.015103591483330847	-0.10309644113349126	0.5294863051344517	0.00018231824075054526	-0.1166188207479738	0.49277648299482313	0.02176674309955673	-0.11698984095145354	0.4998939923348467	-0.015928543459057032	-0.08568069503170606	0.5175454899689573	-0.012075112159304568	-0.08693596332616571	0.536804830235623	0.00732887162036322	-0.0970341203843213	0.5005766255544304	0.03347238884274095	-0.09660795865345972	0.4990743906398787	-0.006144532612552767	-0.07284321814569766	0.5169298035670661	-0.00725170426472288	-0.07061647161044465	0.5379164553827286	0.0053515413753350005	-0.07518797288513712	0.5114968572264975	0.03595277904174676	-0.0746495301796764	0.5036268102142643	-0.009424253878364541	-0.05568290298859452	0.520711312242871	-0.010480814334917654	-0.05574181339666645	0.5370773387209371	0.002661218898245332	-0.055239659219467496	0.5138198401274361	0.02989961756741011	-0.05099208954812029	0.4622830810018609	-0.023011742144276925	-0.051989820119430985
10	0.3666666666666651	0.48838932767096876	-0.02152786733787826	-0.16926104145929116	0.4936591893735035	-0.021888877274004903	-0.14689816531461392	0.4785447232890526	-0.0279809575514417	-0.12037912549648988	0.4778381159230519	-0.026417238215457828	-0.07580395877926283	0.49717205420915245	-0.01445485827053905	-0.09913560909659991	0.5148347383031435	-0.015084250551897105	-0.10308952562986723	0.5295099831602055	0.00022314615774265967	-0.11659251149814759	0.4927900951668599	0.021790379558499273	-0.11696716226010484	0.4999273308885031	-0.015909383055483506	-0.0856449624741436	0.5175696798270737	-0.012023735178749662	-0.08692919941012883	0.5368297579926944	0.007384540092923775	-0.09701769731780241	0.500582926055043	0.033501784190074324	-0.09656530782465783	0.49912589227495563	-0.006037114705343183	-0.07292958244370312	0.5169630401144476	-0.007229381373389021	-0.07060264085776369	0.5379391731792991	0.00539714301205807	-0.07515815428539785	0.5114953365707544	0.0359768995942531	-0.07458997579732946	0.503651148495762	-0.009447921821184702	-0.05571751794157065	0.5207386400526465	-0.010456528236339135	-0.05569893319762548	0.5370941038381014	0.002699484217822068	-0.055219183608127165	0.5138096121040778	0.02990838354107106	-0.050930629853597364	0.4622830810018609	-0.023011742144276925	-0.051989820119430985
11	0.39999999999999825	0.48840612708769626	-0.02147561716782509	-0.16925438101866086	0.49366177593108196	-0.021849342181198828	-0.14688836919604487	0.4785492779095478	-0.02795495861812125	-0.1203713208785131	0.477852582300874	-0.026411791073829405	-0.07579528192080515	0.4971975277353242	-0.014424078286459974	-0.09914202962274221	0.5148593112049886	-0.01505930697888258	-0.10309903469969295	0.5295198232591977	0.0002654807711124363	-0.1165982976323866	0.4927881683545713	0.021813014151714993	-0.11695245463042087	0.49994345913770594	-0.015889662098465318	-0.08563819379406934	0.5175859238723102	-0.012009830040195846	-0.08693832505200944	0.5368386775855106	0.007411104214328668	-0.09701643683647998	0.5005874683727078	0.03352177214429952	-0.096536049638072	0.4991797018134516	-0.006015573376218386	-0.07299453721972882	0.5170074105376571	-0.00722932582459801	-0.07060715232429599	0.5379680609049635	0.005421902686613911	-0.07516539017862511	0.5115040304209992	0.03598335438258626	-0.07455416617830746	0.5037113764861869	-0.009446444770499385	-0.05574235094220781	0.5207989805839841	-0.010452389992898103	-0.05569921851271348	0.5371534009247855	0.0027059817892408633	-0.05524954489842354	0.5138384637425171	0.029879735129114127	-0.05090393969194035	0.4622830810018609	-0.023011742144276925	-0.05198982011943104
12	0.43333333333333146	0.4884168141657874	-0.021417061489745537	-0.16926139543238916	0.49366113080905805	-0.021800688117659117	-0.14689289137969325	0.47854581202979163	-0.027902747027064967	-0.12037663192879594	0.4778485517223152	-0.02640347378506469	-0.0757991038702614	0.49719343749973743	-0.01437828067025726	-0.09915713721703456	0.5148597815621538	-0.015025370665222693	-0.10309179882977071	0.5295030848901809	0.00032103890755352804	-0.11658517549641711	0.49276730405693403	0.021861710739696893	-0.11692862504374668	0.49991849732706317	-0.01585363404699991	-0.08564228702156657	0.517564127467474	-0.011982984193546486	-0.08692673501965337	0.5368129760742684	0.007449398181510247	-0.09699022807834279	0.500568481914268	0.03356905832414292	-0.09649231431165717	0.49915987996294675	-0.006039503562938142	-0.07290484948073117	0.5170044939274647	-0.007190374522746623	-0.07061459873218856	0.5379598293060885	0.00547659378001919	-0.07515352065111686	0.5114805293460314	0.03602392472596416	-0.07449924264886526	0.5037271340505225	-0.009422267853014366	-0.05576290668980749	0.5208134851470723	-0.010446846178447489	-0.0556801693918032	0.5371584267227248	0.0027237328078039136	-0.055243416537868295	0.5138337605560428	0.029883450442440895	-0.05086241925190316	0.4622830810018609	-0.023011742144276925	-0.051989820119430985
13	0.4666666666666647	0.4884635776396965	-0.021386601526734883	-0.16924302856893148	0.4936911024881342	-0.021778268331262618	-0.14687073362466624	0.47855693998299254	-0.027883121210304007	-0.1203658680978762	0.4778604161954051	-0.026436721794068085	-0.07578658161477914	0.49722972733836723	-0.014372912219985046	-0.09916307684492032	0.5149008548364353	-0.01500881283211064	-0.10307803321230402	0.529531365309013	0.00034979942242496787	-0.11657140291474044	0.492789333700557	0.021879952090597787	-0.11690566833083321	0.49994151812150633	-0.015856723628059566	-0.08561563948808554	0.5175849439840916	-0.011975760867447116	-0.08689924841692442	0.5368369485356771	0.0074591665140112395	-0.09695178383955172	0.5005953104017857	0.03358274973596487	-0.09645179782201174	0.4992203635233573	-0.0060224743129631	-0.07298701923659395	0.5170509291761176	-0.0071977409438792606	-0.07060171488518308	0.5379946497096713	0.005494878899608091	-0.07512255006478435	0.5114999144212602	0.0360283216431736	-0.07444526857055062	0.5037649764721888	-0.009530055682337779	-0.055809573793488776	0.5208567530075691	-0.010449108667989315	-0.055646734995321634	0.5371997949832595	0.0027241271174368586	-0.05521911726605633	0.5138550716619061	0.02986144540070068	-0.050806260998025154	0.4622830810018609	-0.023011742144276925	-0.05198982011943093
14	0.4999999999999978	0.48846600338457635	-0.021373719117872447	-0.16923440288355052	0.49369046184251697	-0.021756090131450967	-0.14686123086371333	0.4785389520206903	-0.027867250902325003	-0.1203677323376291	0.47785863248168736	-0.02643730836492575	-0.07578766471021753	0.49726415486380626	-0.014366351150293166	-0.09916022391640428	0.5149334140390278	-0.015002495250660663	-0.1030835644423364	0.5295467687111817	0.00037155605578198525	-0.11657794270340166	0.4928010558456668	0.021895770071756915	-0.1168892158947355	0.499940757412316	-0.015839928761445465	-0.08560785411239091	0.5175808076868302	-0.011944075347250727	-0.08689274807210662	0.5368451532112086	0.007477375478112669	-0.09694768662763054	0.5006013027495502	0.03359750166758979	-0.09642784765377976	0.49919365348175404	-0.0060653142992050935	-0.0728492947528967	0.5170440801387752	-0.007202416100613007	-0.070597791331726	0.5379900277206597	0.005493812311502588	-0.07509812943061822	0.5115042938218488	0.0360350021547613	-0.07441808766762681	0.5037734138144846	-0.00950650411730225	-0.05582550301031303	0.5208629172365257	-0.01046294250055424	-0.05564084547029724	0.5372122484672683	0.0027022887357082137	-0.05520717070368508	0.5138736493169469	0.02984275352152943	-0.05078129091428496	0.4622830810018609	-0.023011742144276925	-0.051989820119430985
15	0.533333333333331	0.4884700085548518	-0.021377513874231258	-0.16922662394708265	0.4936881215895834	-0.021755498710324117	-0.14685189660080095	0.47853339980078324	-0.027859956002306174	-0.12035868976066122	0.4778706818058909	-0.026451971996371282	-0.0757776580779122	0.497269713818449	-0.01436599083967316	-0.09914615215982836	0.5149403520113125	-0.015000881069396566	-0.10306348036322327	0.5295385574555795	0.00038249049696426063	-0.11656363258674463	0.49279514355655296	0.021910528266487872	-0.11688178166938479	0.4999196092765218	-0.01582055719147213	-0.08560178325350903	0.5175645880945735	-0.011939730173573082	-0.08686428242881578	0.5368282442537988	0.007481771204312926	-0.09692044400309024	0.5005929267878568	0.033613997561709574	-0.09641405013642818	0.4991982414397461	-0.005937245431189342	-0.0729345897246586	0.5170278221274622	-0.0071903282104280875	-0.07058175397845917	0.5379783625962169	0.005500537074889844	-0.07507583579535909	0.5114990779437831	0.03604734593809833	-0.07439702317762065	0.5037868166310205	-0.009594723696196628	-0.05583334410233509	0.5208807391974697	-0.010466547109019841	-0.05563908852559385	0.5372323516130402	0.0026957831761817985	-0.055203368576293876	0.5138881677668183	0.02982800431416477	-0.05075644743089602	0.4622830810018609	-0.023011742144276925	-0.05198982011943093
16	0.5666666666666642	0.4884974631442819	-0.02137269956818122	-0.16921653557010502	0.4937015596658755	-0.021740716791950554	-0.14683837785511555	0.4785385303788908	-0.027841923985507777	-0.12034917602449546	0.4778880338048048	-0.026442078704811744	-0.07576770804286415	0.4972995896148872	-0.014353813733525733	-0.09912637635874338	0.5149726208898957	-0.014977290031765511	-0.10303473187713014	0.5295536772029221	0.00040715845456129607	-0.11655217892041114	0.49280265705308657	0.021922211345473674	-0.11687015855438654	0.49991123462605913	-0.015816455448749323	-0.08557446942976632	0.5175560327845867	-0.011933908794002135	-0.08683420329790442	0.5368144501149659	0.007495707276442554	-0.09688472225386241	0.5005832442979055	0.03363398736802403	-0.09639691092163905	0.4991782906102973	-0.00595824953219104	-0.07286662757326173	0.5170183648768842	-0.007165021966507812	-0.07056979269577579	0.5379760598421861	0.0055191412730984934	-0.07504941362308448	0.5114885521520831	0.0360592200367128	-0.0743888385107967	0.5037945339296341	-0.00964337553455985	-0.05585419609804565	0.5208914555403954	-0.010455838333044865	-0.05566664440766678	0.5372311463331422	0.00272040363892867	-0.05520493963898082	0.5138741773610371	0.029841714332233815	-0.05075859757911361	0.4622830810018609	-0.023011742144276925	-0.051989820119430985
